{
    "asset": {
        "version": "2.0",
        "generator": "Open Asset Import Library (assimp v5.0.1f6fe4b5)"
    },
    "extensionsUsed": [
        "FB_ngon_encoding"
    ],
    "accessors": [
        {
            "bufferView": 0,
            "byteOffset": 0,
            "componentType": 5126,
            "count": 400,
            "type": "VEC3",
            "max": [
                0.27023428678512576,
                0.21707962453365327,
                2.5911495685577394
            ],
            "min": [
                -0.9515146613121033,
                -0.5423980355262756,
                0.0055863079614937309
            ]
        },
        {
            "bufferView": 1,
            "byteOffset": 0,
            "componentType": 5126,
            "count": 400,
            "type": "VEC3",
            "max": [
                0.9939854145050049,
                0.9820168614387512,
                0.9953299760818481
            ],
            "min": [
                -0.9989066123962402,
                -0.9987913966178894,
                -0.9312120676040649
            ]
        },
        {
            "bufferView": 2,
            "byteOffset": 0,
            "componentType": 5126,
            "count": 400,
            "type": "VEC2",
            "max": [
                1.9263426065444947,
                1.0239782333374024
            ],
            "min": [
                0.016215331852436067,
                -1.2893576622009278
            ]
        },
        {
            "bufferView": 3,
            "byteOffset": 0,
            "componentType": 5125,
            "count": 1332,
            "type": "SCALAR",
            "max": [
                399
            ],
            "min": [
                0
            ]
        },
        {
            "bufferView": 4,
            "byteOffset": 0,
            "componentType": 5126,
            "count": 255,
            "type": "VEC3",
            "max": [
                0.9025489091873169,
                1.0356031656265259,
                2.7777183055877687
            ],
            "min": [
                -1.1664412021636963,
                -1.0295714139938355,
                1.5894945859909058
            ]
        },
        {
            "bufferView": 5,
            "byteOffset": 0,
            "componentType": 5126,
            "count": 255,
            "type": "VEC3",
            "max": [
                0.915200412273407,
                0.9518598318099976,
                0.9997186660766602
            ],
            "min": [
                -0.8908540606498718,
                -0.9329454898834229,
                0.14595310389995576
            ]
        },
        {
            "bufferView": 6,
            "byteOffset": 0,
            "componentType": 5126,
            "count": 255,
            "type": "VEC2",
            "max": [
                0.9998999834060669,
                0.9999000430107117
            ],
            "min": [
                0.00009998001769417897,
                0.00010001659393310547
            ]
        },
        {
            "bufferView": 7,
            "byteOffset": 0,
            "componentType": 5125,
            "count": 1080,
            "type": "SCALAR",
            "max": [
                254
            ],
            "min": [
                0
            ]
        }
    ],
    "buffers": [
        {
            "byteLength": 30608,
            "uri": "tree.bin"
        }
    ],
    "bufferViews": [
        {
            "buffer": 0,
            "byteOffset": 0,
            "byteLength": 4800,
            "target": 34962
        },
        {
            "buffer": 0,
            "byteOffset": 4800,
            "byteLength": 4800,
            "target": 34962
        },
        {
            "buffer": 0,
            "byteOffset": 9600,
            "byteLength": 3200,
            "target": 34962
        },
        {
            "buffer": 0,
            "byteOffset": 12800,
            "byteLength": 5328,
            "target": 34963
        },
        {
            "buffer": 0,
            "byteOffset": 18128,
            "byteLength": 3060,
            "target": 34962
        },
        {
            "buffer": 0,
            "byteOffset": 21188,
            "byteLength": 3060,
            "target": 34962
        },
        {
            "buffer": 0,
            "byteOffset": 24248,
            "byteLength": 2040,
            "target": 34962
        },
        {
            "buffer": 0,
            "byteOffset": 26288,
            "byteLength": 4320,
            "target": 34963
        }
    ],
    "images": [
        {
            "uri": "..\\Textures\\Bark_Texture.jpg"
        },
        {
            "uri": "..\\Textures\\Leaf_Texture.png"
        }
    ],
    "materials": [
        {
            "name": "Bark",
            "pbrMetallicRoughness": {
                "baseColorTexture": {
                    "index": 0
                },
                "baseColorFactor": [
                    0.800000011920929,
                    0.800000011920929,
                    0.800000011920929,
                    1.0
                ],
                "metallicFactor": 0.0
            }
        },
        {
            "name": "Texture_Leaves",
            "pbrMetallicRoughness": {
                "baseColorTexture": {
                    "index": 1
                },
                "baseColorFactor": [
                    0.800000011920929,
                    0.800000011920929,
                    0.800000011920929,
                    1.0
                ],
                "metallicFactor": 0.0,
                "roughnessFactor": 0.873508870601654
            }
        }
    ],
    "meshes": [
        {
            "name": "Cylinder.005",
            "primitives": [
                {
                    "extensions": {
                        "FB_ngon_encoding": {}
                    },
                    "mode": 4,
                    "material": 0,
                    "indices": 3,
                    "attributes": {
                        "POSITION": 0,
                        "NORMAL": 1,
                        "TEXCOORD_0": 2
                    }
                },
                {
                    "extensions": {
                        "FB_ngon_encoding": {}
                    },
                    "mode": 4,
                    "material": 1,
                    "indices": 7,
                    "attributes": {
                        "POSITION": 4,
                        "NORMAL": 5,
                        "TEXCOORD_0": 6
                    }
                }
            ]
        }
    ],
    "nodes": [
        {
            "name": "RootNode",
            "children": [
                1
            ]
        },
        {
            "name": "Tree_1",
            "matrix": [
                100.0,
                0.0,
                0.0,
                0.0,
                0.0,
                -0.000016292067812173629,
                -100.0,
                0.0,
                0.0,
                100.0,
                -0.000016292067812173629,
                0.0,
                0.0,
                0.0,
                0.0,
                1.0
            ],
            "mesh": 0
        }
    ],
    "samplers": [
        {},
        {}
    ],
    "scenes": [
        {
            "nodes": [
                0
            ]
        }
    ],
    "textures": [
        {
            "source": 0,
            "sampler": 0
        },
        {
            "source": 1,
            "sampler": 1
        }
    ],
    "scene": 0
}